<svg width="58" height="58" viewBox="0 0 58 58" fill="none" xmlns="http://www.w3.org/2000/svg">
<rect y="0.730957" width="58" height="57" rx="9" fill="#285E67"/>
<path d="M41.7815 42.3108L40.2918 40.6489C40.3925 38.439 40.5588 27.6088 34.6657 21.034C29.5663 15.3451 21.4815 14.731 18.2422 14.731C17.3149 14.731 16.7577 14.7801 16.7346 14.7821C16.3698 14.815 16.08 15.1379 16.0509 15.5448C16.0136 16.0646 15.208 28.3569 21.655 35.5488C26.7544 41.2377 34.8399 41.8514 38.0793 41.8514C38.5858 41.8514 38.9766 41.8369 39.2359 41.8236L40.7271 43.4871C40.8725 43.6498 41.0635 43.731 41.2545 43.731C41.4454 43.731 41.6364 43.6498 41.7819 43.4871C42.0728 43.1622 42.0728 42.6358 41.7815 42.3108ZM22.7094 34.3721C17.6085 28.6815 17.4455 19.1091 17.5089 16.407C17.7125 16.4003 17.9591 16.3958 18.2422 16.3958C21.2958 16.3958 28.9057 16.9625 33.6109 22.2112C38.133 27.2559 38.7737 35.3491 38.817 39.0032L33.3129 32.8633L34.0059 26.2369C34.0537 25.7805 33.7605 25.3673 33.3517 25.314C32.9392 25.2616 32.5722 25.5878 32.5244 26.0438L31.9683 31.3628L28.2001 27.1594L27.6175 22.2403C27.5634 21.7847 27.1867 21.4626 26.7801 21.5242C26.3717 21.5845 26.0841 22.0027 26.1382 22.4583L26.4657 25.225L22.0962 20.35C21.8053 20.025 21.3323 20.025 21.0414 20.35C20.7501 20.6749 20.7501 21.2017 21.0414 21.5267L25.4105 26.4009L22.9313 26.0355C22.5229 25.9756 22.1477 26.296 22.094 26.7516C22.0399 27.2073 22.3275 27.6254 22.7359 27.6858L27.1445 28.3357L30.9128 32.5391L26.1453 33.1596C25.7361 33.2128 25.4433 33.626 25.4911 34.0825C25.5355 34.5065 25.8577 34.8185 26.2311 34.8185C26.2598 34.8185 26.2889 34.8169 26.3184 34.8127L32.2577 34.04L37.7667 40.1858C34.5337 40.1454 27.2616 39.4506 22.7094 34.3721Z" fill="white"/>
</svg>
